<svg width="202" height="186" viewBox="0 0 202 186" fill="none" xmlns="http://www.w3.org/2000/svg">
    <g clip-path="url(#clip0_0_16)">
        <ellipse cx="97" cy="95" rx="95" ry="93" fill="#F6F8FD" />
        <path fill-rule="evenodd" clip-rule="evenodd"
            d="M33.6244 45.532L45.1086 50.4019L52.9819 66.0399L54.3122 68.9078L58.3303 68.0961L66.6652 66.6622L72.6923 68.5019L75.2986 70.0982L76.7104 80.5145L78.2851 83.7611L82.086 87.7383L83.6606 88.6311L87.19 82.5978L93.9231 71.2345L94.7647 69.5842L104.511 69.0701L110.566 68.3667C110.566 68.3667 114.231 67.7173 114.774 66.581C115.317 65.4447 118.629 60.3853 118.629 60.3853L123.407 53.1345L127.887 49.5903L131.633 46.2084L132.312 45.9108C132.312 45.9108 133.86 47.2365 135.271 46.9118C136.656 46.5871 138.095 45.3426 138.339 44.9097C138.557 44.5039 140.077 39.688 140.403 38.1729C140.729 36.6578 141.081 30.9762 141.081 30.9762L139.697 25.5652C139.697 25.5652 137.389 18.2332 137.308 17.0969C137.226 15.9605 136.005 11.2259 136.005 11.2259L134.484 3.05516C134.484 3.05516 136.167 4.21853 136.357 4.43498C136.548 4.65142 142.113 12.0916 142.113 12.0916L147.516 21.2634L150.394 28.9741L152.077 37.2801L152.62 46.2895L151.751 55.8401L148.52 66.8786L144.611 74.6976L138.937 84.9786L132.312 96.2336L127.751 106.433L125.145 117.851L124.005 129.755C124.005 129.755 122.403 134.517 121.887 135.22C121.371 135.924 118.575 138.738 118.575 138.738L116.973 139.82L109.697 141.362L96.0407 141.524L81.7873 141.659C81.7873 141.659 73.914 141.01 73.2353 140.848C72.5566 140.686 67.6697 139.495 66.095 137.926C64.5204 136.357 62.0226 132.19 61.6697 129.809C61.3167 127.428 61.2624 121.016 61.2624 121.016C61.2624 121.016 60.1222 114.171 59.552 111.899C58.9548 109.653 56.7014 102.754 56.0769 101.374C55.4525 99.9943 52.4932 93.7445 51.9502 93.1493C51.4072 92.5541 46.4118 83.1118 45.3529 82.2731C44.2941 81.4344 39 70.3146 38.4299 68.9348C37.8597 67.555 35.0634 59.9795 35.1991 59.6007C35.3348 59.1949 33.4072 50.1314 33.3529 49.5903C33.2986 49.0492 33.3529 45.3967 33.6244 45.532Z"
            fill="white" />
        <path opacity="0.18" fill-rule="evenodd" clip-rule="evenodd"
            d="M66.0407 68.7454C66.0407 68.7454 67.0724 77.1055 69.4887 85.8714C69.9774 87.63 70.3303 89.4157 70.4661 91.2284C70.7647 95.1244 70.2217 99.4262 64.0588 88.7934C62.1312 85.4656 57.9774 76.5103 57.8416 67.7714L62.1584 66.9057L65.6335 66.9598C65.6335 66.9327 66.3394 66.6892 66.0407 68.7454V68.7454Z"
            fill="#E8E9EA" />
        <path opacity="0.33" fill-rule="evenodd" clip-rule="evenodd"
            d="M67.9412 68.7454C67.9412 68.7454 68.9728 77.1055 71.3891 85.8714C71.8778 87.63 72.2308 89.4157 72.3665 91.2284C72.6652 95.1244 72.1222 99.4262 65.9593 88.7934C64.0317 85.4656 59.8778 76.5103 59.7421 67.7714L64.0588 66.9057L67.5339 66.9598C67.5339 66.9327 68.2398 66.6892 67.9412 68.7454V68.7454Z"
            fill="#E8E9EA" />
        <path opacity="0.19" fill-rule="evenodd" clip-rule="evenodd"
            d="M136.303 12.5245C136.33 12.7139 136.412 12.9033 136.52 13.0927C137.878 15.23 146.864 30.841 146.321 46.5601C145.724 63.7673 138.91 71.9921 137.09 75.9692C135.271 79.9463 123.597 96.7206 122.213 108.246C120.828 119.772 121.344 127.915 119.715 131.162C118.086 134.409 114.611 137.06 110.186 137.304C110.158 137.304 110.131 137.304 110.077 137.304C109.262 137.412 98.1041 138.873 72.3665 137.385C72.3122 137.385 72.2579 137.385 72.2308 137.358C67.5611 136.708 63.7873 133.272 63.4344 127.347C63.0814 121.395 63.6244 113.278 56.1041 97.0453C48.5837 80.8121 41.009 70.3417 38.0769 60.5747C35.905 53.2969 35.6878 49.5091 35.7421 47.6423C35.7692 46.9389 35.2805 46.3166 34.5747 46.1543V46.1543C33.8145 45.9649 33.2715 46.4519 33.3529 47.2365C33.8145 51.3489 35.009 60.6559 36.8009 64.7413C39.19 70.2064 44.6199 81.4344 47.1991 84.8163C49.7783 88.1982 54.6109 97.8028 55.0181 99.372C55.4253 100.941 59.4434 110.275 60.0407 115.47C60.5294 119.528 60.9638 121.07 61.1267 121.557C61.181 121.693 61.2081 121.855 61.2081 121.99C61.2353 123.424 61.4796 130.675 63.0814 133.272C64.8733 136.167 66.7195 139.468 70.6561 140.361C74.5928 141.254 88.2489 141.2 88.2489 141.2L101.688 141.47C102.367 141.47 103.48 141.47 104.158 141.443C110.701 141.145 113.742 140.767 114.991 140.577C116.783 140.307 118.439 139.549 120.801 138.007C121.371 137.655 123.76 134.706 123.977 130.404C124.113 127.997 124.873 120.178 125.063 119.285C125.253 118.392 126.095 111.709 127.425 108.111C128.647 104.837 132.312 95.6925 136.982 88.4417C141.081 82.1108 142.167 79.4323 142.357 78.8641C142.385 78.783 142.439 78.7018 142.466 78.6206C143.253 77.2949 149.606 66.6351 150.149 62.4686C150.149 62.4145 150.176 62.3604 150.176 62.3063C150.367 61.5217 151.86 55.6777 152.104 53.6756C152.348 51.5383 152.81 41.636 152.104 37.3342C151.398 33.0324 149.552 25.1864 148.222 22.8326C146.973 20.6141 142.52 12.9033 142.005 11.9834C141.977 11.9293 141.923 11.8752 141.896 11.8211L137.525 6.19357C133.29 0.620179 135.217 5.89596 135.407 7.11345L136.303 12.5245V12.5245Z"
            fill="#1951FC" />
        <path opacity="0.08" fill-rule="evenodd" clip-rule="evenodd"
            d="M137.552 42.5018C137.552 42.5018 141.597 52.5123 136.357 62.9827C131.118 73.4531 130.032 73.4801 130.032 73.4801C130.032 73.4801 130.385 66.2293 130.032 62.0898C129.679 57.9504 128.403 52.891 126.855 49.6444C126.855 49.6444 127.914 47.8858 129.109 47.48C130.466 47.02 134.186 46.2084 134.186 46.2084C134.186 46.2084 137.335 43.7463 137.552 42.5018V42.5018Z"
            fill="#E5E5E5" />
        <path opacity="0.3" d="M123.136 130.404C123.136 130.404 122.864 139.468 113.362 139.766" stroke="#1951FC"
            stroke-width="1.5" stroke-linecap="round" />
        <path opacity="0.2" fill-rule="evenodd" clip-rule="evenodd"
            d="M138.638 42.5018C138.638 42.5018 142.683 52.5123 137.443 62.9827C132.204 73.4531 131.118 73.4801 131.118 73.4801C131.118 73.4801 131.471 66.2293 131.118 62.0898C130.765 57.9504 129.489 52.891 127.941 49.6444C127.941 49.6444 129 47.8858 130.195 47.48C131.552 47.02 135.271 46.2084 135.271 46.2084C135.271 46.2084 138.421 43.7463 138.638 42.5018V42.5018Z"
            fill="#E5E5E5" />
        <g clip-path="url(#clip1_0_16)">
            <path
                d="M67.8054 139.116C61.8326 133.922 61.5882 129.025 61.3982 123.451C61.3439 121.287 61.0995 119.122 60.6923 116.985C58.4661 105.432 55.8326 100.103 51.8959 92.9058C50.2398 89.8756 48.4751 86.9537 46.6018 84.0587C34.0045 64.6601 33.2172 50.1043 33.2715 46.2625C33.2715 45.7755 33.7873 45.4508 34.2217 45.6402L45.3258 50.3478C45.7059 50.5102 46.0045 50.8078 46.1674 51.1595L54.0679 68.0961C54.2579 68.5019 54.7195 68.7454 55.1538 68.6372L65.8507 66.4998C66.0679 66.4457 66.2579 66.4457 66.4751 66.4998L69.8145 67.1492C70.3846 67.2574 70.9547 66.8786 71.0905 66.3105L71.6606 63.6049C71.7421 63.2262 71.9864 62.9286 72.3394 62.7662L90.638 54.5685C91.2081 54.325 91.6425 53.838 91.8054 53.2157L96.6109 36.4144C96.7195 35.9815 96.9638 35.6297 97.3167 35.3321L113.226 21.8045C113.715 21.3716 114.502 21.5069 114.828 22.075L124.493 38.4706C124.792 38.9575 125.443 39.0928 125.878 38.7141C128.593 36.5496 137.063 29.7587 139.534 27.4861C139.968 27.0803 140.131 26.458 139.941 25.9169C136.629 16.1229 134.62 3.13632 134.457 2.10822C134.457 2.08117 134.484 2.08117 134.484 2.10822C140.294 8.65561 142.222 11.0906 146.104 18.2061C148.195 22.048 149.715 26.1874 150.882 30.4081C155.172 45.9919 150.882 59.709 150.231 62.2522C150.068 62.8744 149.579 64.2272 149.389 64.8224C147.652 69.9359 135.271 91.3637 134.348 92.8517"
                stroke="#353D47" stroke-width="1.08" />
            <path
                d="M67.8054 139.116C61.8326 133.922 61.5882 129.025 61.3982 123.451C61.3439 121.287 61.0995 119.122 60.6923 116.985C58.4661 105.432 55.8326 100.103 51.8959 92.9058C50.2398 89.8756 48.4751 86.9537 46.6018 84.0587C34.0045 64.6601 33.2172 50.1043 33.2715 46.2625C33.2715 45.7755 33.7873 45.4508 34.2217 45.6402L45.3258 50.3478C45.7059 50.5102 46.0045 50.8078 46.1674 51.1595L54.0679 68.0961C54.2579 68.5019 54.7195 68.7454 55.1538 68.6372L65.8507 66.4998C66.0679 66.4457 66.2579 66.4457 66.4751 66.4998L69.8145 67.1492C70.3846 67.2574 70.9547 66.8786 71.0905 66.3105L71.6606 63.6049C71.7421 63.2262 71.9864 62.9286 72.3394 62.7662L90.638 54.5685C91.2081 54.325 91.6425 53.838 91.8054 53.2157L96.6109 36.4144C96.7195 35.9815 96.9638 35.6297 97.3167 35.3321L113.226 21.8045C113.715 21.3716 114.502 21.5069 114.828 22.075L124.493 38.4706C124.792 38.9575 125.443 39.0928 125.878 38.7141C128.593 36.5496 137.063 29.7587 139.534 27.4861C139.968 27.0803 140.131 26.458 139.941 25.9169C136.629 16.1229 134.62 3.13632 134.457 2.10822C134.457 2.08117 134.484 2.08117 134.484 2.10822C140.294 8.65561 142.222 11.0906 146.104 18.2061C148.195 22.048 149.715 26.1874 150.882 30.4081C155.172 45.9919 150.882 59.709 150.231 62.2522C150.068 62.8744 149.579 64.2272 149.389 64.8224C147.652 69.9359 135.271 91.3637 134.348 92.8517"
                stroke="#333435" stroke-width="1.5" stroke-linecap="round" />
        </g>
        <path
            d="M70.7104 67.2574L75.8688 69.3407C76.1946 69.4759 76.4389 69.7735 76.4932 70.1253L78.1493 81.0827C78.2308 81.5697 78.4208 82.0025 78.7466 82.3813L82.6018 86.9266C83.362 87.8194 84.7738 87.6842 85.371 86.6831L94.9004 70.2064C95.1176 69.8547 95.4706 69.6112 95.8778 69.5842L112.113 68.3126C112.113 68.3126 114.394 68.2314 116.593 64.0378C117.896 61.5758 120.176 58.0045 121.833 55.4883C123.081 53.5945 124.629 51.89 126.394 50.4561L130.683 46.993C131.281 46.506 132.041 46.2895 132.801 46.3707C134.186 46.506 136.548 46.3707 138.041 44.0981C138.367 43.6111 138.584 43.0429 138.665 42.4747L140.077 34.1688C140.213 33.3842 140.213 32.5996 140.104 31.8149L140.05 26.5392"
            stroke="#333435" stroke-width="1.5" />
        <path fill-rule="evenodd" clip-rule="evenodd"
            d="M114.91 66.2022C114.665 66.4999 114.611 66.9057 114.719 67.2845C115.072 68.5019 116.023 71.7756 116.158 73.1013C116.321 74.5623 116.62 80.6768 116.701 81.9755C116.701 82.1378 116.729 82.3002 116.756 82.4625L118.412 91.4448C118.412 91.4448 116.919 81.0827 116.973 80.7851C117.027 80.4874 122.158 82.6248 122.158 82.6248L117.733 80.6498C117.136 80.3792 116.756 79.8111 116.729 79.1888C116.647 76.9432 116.484 71.8027 116.484 71.6133C116.484 71.3698 115.588 67.1492 115.317 66.3646C115.235 65.9317 115.072 66.0129 114.91 66.2022V66.2022Z"
            fill="#333435" />
        <path opacity="0.31" fill-rule="evenodd" clip-rule="evenodd"
            d="M115.181 65.9317C114.937 66.2293 114.882 66.6351 114.991 67.0139C115.344 68.2314 116.294 71.5051 116.43 72.8308C116.593 74.2918 116.729 80.2169 116.973 81.7049C117 81.8673 117 82.0296 117.027 82.1919L118.683 91.1743C118.683 91.1743 117.054 80.758 117.109 80.4333C117.244 80.4063 122.186 82.5978 122.186 82.5978L118.032 80.3522C117.434 80.0816 117.054 79.5135 117.027 78.8912C116.946 76.6456 116.783 71.5051 116.783 71.3157C116.783 71.0722 115.887 66.8516 115.615 66.067C115.507 65.6611 115.344 65.7423 115.181 65.9317V65.9317Z"
            fill="#1951FC" />
        <path fill-rule="evenodd" clip-rule="evenodd"
            d="M55.371 69.2054L54.7466 74.6435C54.7195 74.7788 54.7466 74.914 54.8009 75.0493C55.0181 75.5904 55.6154 77.1596 55.8869 78.1607C55.9412 78.296 55.724 78.3771 55.6425 78.2419C55.2353 77.4572 54.638 76.2127 54.3665 75.6445C54.2579 75.4281 54.0679 75.3199 53.8507 75.3199H52.3303C52.1674 75.3199 52.1131 75.0764 52.276 75.0223L53.2805 74.6705C53.552 74.5623 53.7692 74.3188 53.7964 74.0212L54.2851 68.8807C54.3122 68.6102 54.5566 68.4208 54.8281 68.4478L54.9638 68.7184C55.2353 68.7454 55.3982 68.9619 55.371 69.2054V69.2054Z"
            fill="#333435" />
        <path opacity="0.15" fill-rule="evenodd" clip-rule="evenodd"
            d="M55.2081 69.503L54.448 74.9141C54.4208 75.0493 54.448 75.1846 54.5023 75.3199C54.6923 75.861 55.4525 77.322 55.724 78.3501C55.7511 78.4854 55.5068 78.6206 55.4525 78.4854C55.0724 77.7007 54.3394 76.5103 54.095 75.9151C54.0136 75.6987 53.7964 75.5634 53.5792 75.5634L52.086 75.6716C51.9231 75.6716 52.0588 75.2117 52.2217 75.1576L53.0362 74.887C53.3348 74.8058 53.5249 74.5353 53.5792 74.2377L54.095 68.7184C54.1222 68.4478 54.4751 68.6372 54.7466 68.6643L54.8552 68.9619C55.0724 69.0431 55.2624 69.2595 55.2081 69.503V69.503Z"
            fill="#6F7175" />
        <path fill-rule="evenodd" clip-rule="evenodd"
            d="M84.6652 87.5489L80.4299 99.5344C80.4299 99.5614 80.3756 99.5614 80.3756 99.5344L82.9819 87.9547C83.009 87.7653 83.1448 87.603 83.3348 87.5489L84.2851 87.2242C84.5294 87.116 84.7195 87.3324 84.6652 87.5489V87.5489Z"
            fill="#333435" />
        <path opacity="0.22" fill-rule="evenodd" clip-rule="evenodd"
            d="M83.6335 87.4136L80.3484 99.6967C80.3484 99.7238 80.2941 99.7238 80.2941 99.6967L81.9774 87.9277C82.0045 87.7383 82.1131 87.5759 82.3032 87.4948L83.2262 87.0889C83.4706 86.9807 83.6878 87.1701 83.6335 87.4136V87.4136Z"
            fill="#1951FC" />
        <path fill-rule="evenodd" clip-rule="evenodd"
            d="M96.8281 181.106H95.8778C95.7421 181.106 95.6335 180.998 95.6335 180.863V180.863C95.6335 180.727 95.7421 180.619 95.8778 180.619H96.8281C96.9638 180.619 97.0724 180.727 97.0724 180.863V180.863C97.0724 180.998 96.9638 181.106 96.8281 181.106V181.106Z"
            fill="white" />
        <path fill-rule="evenodd" clip-rule="evenodd"
            d="M106.113 51.4571C106.113 51.4571 108.557 53.2157 113.335 52.2958C113.878 52.0794 114.828 52.0794 114.91 52.3499C114.991 52.6205 113.308 58.8161 113.308 59.0867H112.276L109.29 68.0149H107.932C107.932 68.0149 112.819 54.4332 113.09 52.8099C113.145 52.7558 109.29 53.4321 105.842 51.917C105.842 51.8359 105.842 51.2948 106.113 51.4571V51.4571Z"
            fill="#9AAAC1" />
        <path opacity="0.29" fill-rule="evenodd" clip-rule="evenodd"
            d="M106.928 51.1865C106.928 51.1865 109.371 52.9451 114.149 52.0253C114.692 51.8088 115.643 51.8088 115.724 52.0794C115.805 52.3499 114.122 58.5456 114.122 58.8161H113.09L110.104 67.7444H108.747C108.747 67.7444 113.633 54.1626 113.905 52.5393C113.959 52.4852 110.104 53.1616 106.656 51.6465C106.656 51.5653 106.656 51.0242 106.928 51.1865V51.1865Z"
            fill="#9AAAC1" />
        <path opacity="0.48" fill-rule="evenodd" clip-rule="evenodd"
            d="M108.285 70.1794C108.285 70.1794 101.769 91.1472 101.416 92.5812C101.063 94.0151 101.063 100.806 102.312 109.572C103.045 116.146 102.502 136.357 102.855 137.087C103.208 137.818 101.661 112.44 101.199 110.221C100.738 107.976 99.5158 96.2877 100.385 92.8517C101.253 89.4157 106.71 71.965 106.71 71.965L107.335 70.1794H108.285V70.1794Z"
            fill="#B4C1DB" />
        <path opacity="0.12" fill-rule="evenodd" clip-rule="evenodd"
            d="M109.371 70.1794C109.371 70.1794 102.855 91.1472 102.502 92.5812C102.149 94.0151 102.149 100.806 103.398 109.572C104.131 116.146 103.588 136.357 103.941 137.087C104.294 137.818 102.747 112.44 102.285 110.221C101.824 107.976 100.602 96.2877 101.471 92.8517C102.339 89.4157 107.796 71.965 107.796 71.965L108.421 70.1794H109.371V70.1794Z"
            fill="#1951FC" />
        <path opacity="0.48" fill-rule="evenodd" clip-rule="evenodd"
            d="M83.552 91.2825C84.0407 92.9599 84.2308 98.7227 83.9864 101.32C83.7421 103.944 83.4163 106.001 82.9005 111.249C82.3846 116.471 83.0633 134.706 83.0633 134.706C83.0633 134.706 83.3891 117.174 83.5249 115.849C83.6606 114.55 85.0724 102.186 85.2353 98.858C85.4253 95.5302 84.4751 89.7945 84.4751 89.7945L84.2851 88.4958L83.552 91.2825V91.2825Z"
            fill="#B4C1DB" />
        <path opacity="0.46" d="M99.1086 70.9369C99.1086 70.9369 97.2624 76.0233 95.905 76.0233" stroke="#142A51"
            stroke-width="0.54" />
        <path opacity="0.3"
            d="M81.9502 45.1803C81.9502 45.1803 81.5158 49.1033 81.8416 50.2667C82.1946 51.403 85.6968 67.5009 85.8326 67.6903C85.9412 67.8526 87.2715 72.0732 88.4932 74.2377C88.9276 74.9952 89.6335 75.5904 90.4751 75.8339C90.8824 75.9692 91.5339 75.9692 91.5339 75.9692"
            stroke="#1951FC" stroke-width="0.5" />
        <path opacity="0.3"
            d="M104.05 45.1532C104.05 45.1532 104.593 50.429 102.149 58.735C100.602 65.4988 99.7873 68.7454 99.7873 68.7454"
            stroke="#1951FC" stroke-width="0.5" />
        <path opacity="0.19"
            d="M104.593 45.1532C104.593 45.1532 105.136 50.429 102.692 58.735C101.145 65.4988 100.33 68.7454 100.33 68.7454"
            stroke="#1951FC" stroke-width="0.54" />
        <ellipse opacity="0.22" cx="102.502" cy="49.5632" rx="1.27602" ry="1.2716" stroke="#1951FC"
            stroke-width="0.54" />
        <ellipse opacity="0.22" cx="82.3032" cy="49.5632" rx="1.27602" ry="1.2716" stroke="#1951FC"
            stroke-width="0.54" />
        <path
            d="M90.7466 74.3188L86.4299 74.4812C86.0769 74.4812 85.8054 74.7788 85.8054 75.1305V75.6445C85.8054 75.9963 86.1041 76.2939 86.457 76.2939H88.6561"
            stroke="#1951FC" stroke-width="0.5" />
        <path
            d="M90.5023 74.5894L86.3756 74.7247C86.0498 74.7247 85.7783 74.9411 85.7783 75.2117V75.5904C85.7783 75.861 86.0498 76.0774 86.3756 76.0774H88.4932"
            stroke="#DC3B05" stroke-opacity="0.31" stroke-width="0.5" />
        <path opacity="0.22"
            d="M92.8643 74.1836C92.8643 74.1836 96.448 74.2377 97.9412 74.4271C98.2941 74.4812 98.5656 74.7788 98.5656 75.1305V75.5093C98.5656 75.861 98.2941 76.1586 97.914 76.1856L95.7964 76.2939"
            stroke="#142A51" stroke-width="0.5" />
        <path opacity="0.22"
            d="M95.0362 76.2668C95.0362 76.2668 94.4932 80.1898 94.6833 86.629C94.9548 92.7164 94.5475 94.4209 97.0181 95.909"
            stroke="#142A51" stroke-width="0.5" />
        <path opacity="0.28"
            d="M95.3077 76.2668C95.3077 76.2668 94.7647 80.1898 94.9547 86.629C95.2262 92.7164 94.819 94.4209 97.2896 95.909"
            stroke="#1951FC" stroke-width="0.5" />
        <path
            d="M95.8507 77.7819C95.8507 77.7819 95.3077 81.4073 95.4977 87.3324C95.7692 92.9599 95.362 94.5021 97.8326 95.8819"
            stroke="white" stroke-width="0.5" />
        <path opacity="0.22"
            d="M90.3665 78.2148C90.3665 78.2148 90.638 91.2825 90.3665 92.5541C90.095 93.8257 89.0905 95.9901 86.8371 96.6124"
            stroke="#142A51" stroke-width="0.5" />
        <path opacity="0.28"
            d="M90.095 78.2148C90.095 78.2148 90.3665 91.2825 90.095 92.5541C89.8235 93.8257 88.819 95.9901 86.5656 96.6124"
            stroke="#1951FC" stroke-width="0.5" />
        <path
            d="M89.552 80.6227C89.552 80.6227 89.8235 91.9859 89.552 93.0952C89.2805 94.2045 88.276 96.0713 86.0226 96.6124"
            stroke="white" stroke-width="0.5" />
        <ellipse opacity="0.14" cx="93.3258" cy="109.815" rx="3.58371" ry="3.5713" stroke="#142A51"
            stroke-width="0.5" />
        <path opacity="0.14"
            d="M97.4253 112.196C97.4253 112.196 96.0679 113.468 95.8507 118.419C95.6335 123.37 95.8507 129.052 95.8507 129.052"
            stroke="#142A51" stroke-width="0.5" />
        <path opacity="0.14"
            d="M88.1946 112.927C88.1946 112.927 89.905 114.739 89.7421 117.364C89.552 119.988 89.7421 127.997 89.7421 127.997"
            stroke="#142A51" stroke-width="0.5" />
        <path fill-rule="evenodd" clip-rule="evenodd"
            d="M103.072 142.077H82.4932C82.3032 142.077 82.1403 141.84 82.1403 141.564V141.09C82.1403 140.814 82.3032 140.577 82.4932 140.577H103.072C103.262 140.577 103.425 140.814 103.425 141.09V141.564C103.425 141.84 103.29 142.077 103.072 142.077V142.077Z"
            fill="#333435" />
        <path fill-rule="evenodd" clip-rule="evenodd"
            d="M106.005 142.077H104.348C104.158 142.077 103.995 141.84 103.995 141.564V141.09C103.995 140.814 104.158 140.577 104.348 140.577H106.005C106.195 140.577 106.357 140.814 106.357 141.09V141.564C106.385 141.84 106.222 142.077 106.005 142.077V142.077Z"
            fill="#333435" />
        <path opacity="0.26" fill-rule="evenodd" clip-rule="evenodd"
            d="M103.072 140.523H82.4932C82.3032 140.523 82.1403 140.361 82.1403 140.171V139.847C82.1403 139.657 82.3032 139.495 82.4932 139.495H103.072C103.262 139.495 103.425 139.657 103.425 139.847V140.171C103.425 140.361 103.29 140.523 103.072 140.523V140.523Z"
            fill="#1951FC" />
        <path opacity="0.26" fill-rule="evenodd" clip-rule="evenodd"
            d="M106.005 140.523H104.348C104.158 140.523 103.995 140.361 103.995 140.171V139.847C103.995 139.657 104.158 139.495 104.348 139.495H106.005C106.195 139.495 106.357 139.657 106.357 139.847V140.171C106.385 140.361 106.222 140.523 106.005 140.523V140.523Z"
            fill="#1951FC" />
        <path fill-rule="evenodd" clip-rule="evenodd"
            d="M75.8688 145.123H114.231C115.154 145.123 116.05 145.393 116.756 145.934C117.597 146.584 118.439 147.72 118.33 149.668C118.195 152.076 116.511 153.05 115.262 153.456C115.018 153.537 115.018 153.888 115.262 153.97C116.566 154.403 118.33 155.539 118.33 158.434C118.33 160.788 116.81 161.897 115.615 162.384C115.181 162.573 115.154 163.141 115.534 163.385C116.783 164.115 118.466 165.576 118.303 168.147C118.222 169.364 117.706 170.311 117.054 171.014C115.995 172.124 114.502 172.719 112.955 172.719H76.5204C75 172.719 73.5339 172.043 72.638 170.798C72.095 170.041 71.6878 169.012 71.7692 167.633C71.905 165.008 73.6697 163.926 74.8642 163.466C75.19 163.358 75.19 162.898 74.8914 162.763C73.6154 162.167 71.7421 160.815 71.7421 158.163C71.7421 155.755 73.371 154.646 74.6742 154.159C75.0543 154.024 75.0543 153.483 74.6742 153.347C73.2896 152.779 71.4977 151.535 71.7421 148.694C71.905 144.825 75.8688 145.123 75.8688 145.123V145.123Z"
            fill="#DC3B05" stroke="#333435" stroke-width="1.5" />
        <path opacity="0.17" fill-rule="evenodd" clip-rule="evenodd"
            d="M77.6302 145.664H113.744C113.744 145.664 116.996 146.34 116.786 149.993C116.681 152.103 115.343 153.05 114.242 153.483C113.927 153.591 113.927 154.051 114.216 154.186C115.37 154.646 116.786 155.755 116.786 158.326C116.786 160.517 115.422 161.572 114.321 162.059C113.901 162.249 113.875 162.817 114.268 163.06C115.422 163.764 116.917 165.171 116.786 167.551C116.655 169.797 114.95 171.015 113.901 171.556C113.455 171.772 112.983 171.907 112.485 171.907H77.0794C77.0794 171.907 73.6175 170.852 73.8274 167.064C73.9585 164.657 75.5058 163.601 76.6073 163.168C76.922 163.033 76.9483 162.573 76.6336 162.411C75.4796 161.816 73.8011 160.544 73.8274 158.082C73.8274 155.62 75.5845 154.592 76.8171 154.186C77.0794 154.105 77.0794 153.699 76.8171 153.618C75.5058 153.131 73.5913 151.941 73.8274 149.073C73.9585 145.42 77.6302 145.664 77.6302 145.664V145.664Z"
            stroke="#1D2128" stroke-width="1.5" />
        <path fill-rule="evenodd" clip-rule="evenodd"
            d="M81.7873 175.154H108.584C109.018 175.154 109.235 175.641 108.991 175.993C107.416 177.914 102.855 182.54 95.0905 182.784C87.6244 182.784 82.9819 177.968 81.4072 175.993C81.1086 175.641 81.3529 175.154 81.7873 175.154V175.154Z"
            fill="#DC3B05" stroke="#333435" stroke-width="1.5" />
        <path fill-rule="evenodd" clip-rule="evenodd"
            d="M110.077 155.701H81.733C80.3756 155.701 79.2896 154.619 79.2896 153.266V152.969C79.2896 151.616 80.3756 150.534 81.733 150.534H110.077C111.434 150.534 112.52 151.616 112.52 152.969V153.266C112.52 154.619 111.434 155.701 110.077 155.701V155.701Z"
            fill="white" />
        <path fill-rule="evenodd" clip-rule="evenodd"
            d="M103.371 166.145H81.7602C80.4027 166.145 79.3167 165.062 79.3167 163.71V163.412C79.3167 162.059 80.4027 160.977 81.7602 160.977H103.371C104.729 160.977 105.814 162.059 105.814 163.412V163.71C105.814 165.035 104.701 166.145 103.371 166.145V166.145Z"
            fill="white" />
        <path opacity="0.31" fill-rule="evenodd" clip-rule="evenodd"
            d="M103.697 167.699H81.2443C80.9729 167.699 80.7557 167.365 80.7557 166.949C80.7557 166.532 80.9729 166.199 81.2443 166.199H103.697C103.968 166.199 104.186 166.532 104.186 166.949C104.186 167.365 103.968 167.699 103.697 167.699Z"
            fill="#2D2D2D" />
        <path opacity="0.31" fill-rule="evenodd" clip-rule="evenodd"
            d="M110.376 157.147H81.2715C81 157.147 80.7828 156.814 80.7828 156.397V156.397C80.7828 155.98 81 155.647 81.2715 155.647H110.376C110.647 155.647 110.864 155.98 110.864 156.397V156.397C110.864 156.814 110.62 157.147 110.376 157.147V157.147Z"
            fill="#2D2D2D" />
        <path d="M113.362 147.152C113.362 147.152 114.719 147.639 114.584 149.587" stroke="white" stroke-width="1.5"
            stroke-linecap="round" />
        <path d="M114.557 168.958C114.557 168.958 114.285 170.365 112.303 170.5" stroke="white" stroke-width="1.5"
            stroke-linecap="round" />
        <path d="M104.154 177.428C104.154 177.428 101.846 179.403 97.7466 180.052" stroke="white" stroke-width="1.5"
            stroke-linecap="round" />
        <path d="M123.95 130.404C123.95 130.404 123.652 140.253 113.362 140.577" stroke="#333435" stroke-width="1.5"
            stroke-linecap="round" />
        <path opacity="0.28"
            d="M71.1176 66.3105L76.6561 68.4478C76.6561 68.4478 77.5792 70.4499 77.6878 72.5873C77.7964 74.7247 78.8281 81.1368 78.8281 81.1368L83.5249 86.5478C83.5249 86.5478 84.5294 87.3595 85.5611 84.8433C86.5928 82.3272 93.7873 70.1523 93.7873 70.1523C93.7873 70.1523 94.5204 68.4749 96.6923 68.7184L111.896 67.4468C111.896 67.4468 113.226 67.9338 114.937 65.2824C116.647 62.6309 119.824 56.5435 122.891 52.4311C126.394 48.7516 130.575 45.8567 130.575 45.8567C130.575 45.8567 131.878 45.1262 133.643 45.4508C135.543 45.559 137.172 43.8004 137.389 43.3405C137.824 42.3665 139.154 34.1417 139.154 34.1417C139.154 34.1417 139.127 30.4892 138.692 28.7306"
            stroke="#1951FC" stroke-width="1.08" />
        <path opacity="0.3"
            d="M135.299 3.89387C135.299 3.89387 145.208 14.6619 149.036 27.2426C149.172 27.6484 149.308 28.0543 149.443 28.4601C153.434 39.661 151.778 50.3208 151.452 52.2417L151.398 52.7016C151.344 53.0263 151.317 53.1886 151.29 53.5133C151.154 55.9753 149.742 64.4166 145.561 71.2616C145.29 71.6945 145.018 72.1544 144.774 72.6144C140.104 81.3532 133.914 92.3106 133.914 92.3106"
            stroke="#1951FC" stroke-width="1.08" />
        <path opacity="0.28"
            d="M71.8778 66.9327L72.6923 63.9567L90.7195 55.7589C90.7195 55.7589 92.1855 55.2178 92.8371 53.1886C93.5158 51.1595 97.371 36.8202 97.371 36.8202C97.371 36.8202 97.724 36.0085 98.6742 35.251C99.6244 34.4934 113.199 22.8055 113.199 22.8055C113.199 22.8055 114.014 22.1833 114.367 23.1572C114.719 24.1312 123.597 38.5788 123.597 38.5788C123.597 38.5788 124.765 40.4185 126.122 39.7963C127.48 39.174 138.339 29.6505 138.339 29.6505"
            stroke="#1951FC" stroke-width="1.08" />
        <path opacity="0.46" d="M98.5656 70.9369C98.5656 70.9369 96.7195 76.0233 95.362 76.0233" stroke="#142A51"
            stroke-opacity="0.24" stroke-width="0.54" />
        <path opacity="0.5" fill-rule="evenodd" clip-rule="evenodd"
            d="M120.828 92.2836C120.828 92.2836 117.434 100.346 117.326 103.647C117.353 106.975 117.326 114.739 117.326 114.739C117.326 114.739 116.62 103.376 116.837 101.428C117.054 99.5614 118.303 95.909 120.828 92.2836V92.2836Z"
            fill="#E5E5E5" />
        <path opacity="0.12" fill-rule="evenodd" clip-rule="evenodd"
            d="M121.643 92.2836C121.643 92.2836 118.249 100.346 118.14 103.647C118.167 106.975 118.14 114.739 118.14 114.739C118.14 114.739 117.434 103.376 117.652 101.428C117.869 99.5614 119.118 95.909 121.643 92.2836V92.2836Z"
            fill="#1951FC" />
        <path opacity="0.47" fill-rule="evenodd" clip-rule="evenodd"
            d="M145.127 50.8619C145.127 50.8619 144.122 65.1471 133.072 80.9474C122.05 96.7747 141.326 71.0722 145.127 50.8619V50.8619Z"
            fill="#E8E9EA" />
        <path opacity="0.35" fill-rule="evenodd" clip-rule="evenodd"
            d="M63.2172 123.127C63.2172 123.127 61.7511 135.653 71.9864 137.249C72.4208 137.493 62.7014 135.112 63.2172 123.127V123.127Z"
            fill="#1951FC" />
        <path opacity="0.22" fill-rule="evenodd" clip-rule="evenodd"
            d="M63.7602 122.856C63.7602 122.856 62.2941 135.383 72.5294 136.979C72.9638 137.222 63.2443 134.842 63.7602 122.856V122.856Z"
            fill="#1951FC" />
        <path fill-rule="evenodd" clip-rule="evenodd"
            d="M83.4977 86.9266C83.3348 86.8725 80.0498 76.8079 80.0498 76.8079L76.3032 65.2012L73.6697 56.8952L72.7466 54.1356C72.7466 54.1356 76.6833 54.0274 79.724 51.2677C80.5928 50.5372 80.7014 49.9961 80.7014 49.9961C80.7014 49.9961 78.0136 53.6756 72.7466 53.7568C72.5837 53.6215 72.0136 51.3759 71.0362 52.1876C70.819 52.864 71.3891 56.2459 71.9321 57.3552C72.4751 58.4644 72.5294 59.1408 72.5294 59.1408H73.4253C73.4253 59.1408 74.8643 64.0108 75.1358 64.7142C75.4072 65.4176 78.3394 74.5894 78.5023 74.9682C78.6652 75.3469 81.8688 85.141 81.9502 85.3574C82.0317 85.4927 82.4661 85.9797 82.629 86.2232"
            fill="#9AAAC1" />
        <path opacity="0.12" fill-rule="evenodd" clip-rule="evenodd"
            d="M84.7738 87.143C84.6109 87.0889 81.2172 76.9703 81.2172 76.9703L77.3348 65.3094L74.6199 56.9764L73.6697 54.1897C73.6697 54.1897 78.3394 53.378 80.2398 50.916C80.4299 50.7266 80.5928 50.1314 80.5928 50.1314C80.5928 50.1314 78.7738 53.2698 73.6425 53.7568C73.4796 53.6215 72.8824 51.3759 71.905 52.1876C71.6878 52.864 72.3122 56.2729 72.8552 57.3822C73.3982 58.4915 73.4796 59.1679 73.4796 59.1679H74.3756C74.3756 59.1679 75.8688 64.0649 76.1403 64.7683C76.4118 65.4717 79.4253 74.6976 79.6154 75.0493C79.7783 75.4281 83.0633 85.2492 83.1719 85.4656C83.2534 85.6009 83.6878 86.0879 83.8507 86.3314"
            fill="#1951FC" />
        <path opacity="0.22"
            d="M81.4072 45.1803C81.4072 45.1803 80.9728 49.1033 81.2986 50.2667C81.6516 51.403 85.1538 67.5009 85.2896 67.6903C85.3982 67.8526 86.7285 72.0732 87.9502 74.2377C88.3846 74.9952 89.0905 75.5904 89.9321 75.8339C90.3394 75.9692 90.9909 75.9692 90.9909 75.9692"
            stroke="#DC3B05" stroke-width="0.54" />
        <path opacity="0.22"
            d="M81.9502 50.8348C81.9502 50.8348 90.638 54.2167 91.0452 54.2709C91.4525 54.325 95.3348 54.812 95.3348 54.812"
            stroke="#1951FC" stroke-width="0.54" />
        <path opacity="0.26" fill-rule="evenodd" clip-rule="evenodd"
            d="M105.324 174.38C105.732 174.38 105.949 173.813 105.677 174.083C104.211 175.734 100.003 179.684 92.7815 179.9C85.8584 179.9 81.5417 175.788 80.1028 174.083C79.8584 173.786 80.0756 174.38 80.4828 174.38H105.324Z"
            fill="#DC3B05" stroke="#DC3B05" stroke-width="1.5" />
    </g>
    <defs>
        <clipPath id="clip0_0_16">
            <rect width="202" height="186" fill="white" />
        </clipPath>
        <clipPath id="clip1_0_16">
            <rect width="120" height="138" fill="white" transform="translate(33 2)" />
        </clipPath>
    </defs>
</svg>